<svg width="1500" height="600" viewBox="0 0 1500 600" fill="none" xmlns="http://www.w3.org/2000/svg">
<path d="M454.787 294.144C454.787 261.877 445.219 230.335 427.292 203.506C409.366 176.677 383.887 155.767 354.076 143.419C324.265 131.071 291.463 127.84 259.816 134.135C228.169 140.43 199.1 155.968 176.284 178.784C153.468 201.6 137.93 230.669 131.635 262.316C125.34 293.963 128.571 326.765 140.919 356.576C153.267 386.387 174.177 411.866 201.006 429.792C227.835 447.719 259.377 457.287 291.644 457.287V393.827C271.928 393.827 252.655 387.981 236.263 377.027C219.87 366.074 207.093 350.505 199.548 332.291C192.003 314.076 190.029 294.033 193.876 274.696C197.722 255.36 207.216 237.598 221.157 223.657C235.098 209.716 252.86 200.222 272.196 196.376C291.533 192.529 311.576 194.503 329.791 202.048C348.005 209.593 363.574 222.37 374.527 238.763C385.481 255.155 391.327 274.428 391.327 294.144H454.787Z" fill="url(#paint0_linear_26_121)"/>
<path d="M466.5 417.129C466.5 445.776 443.276 469 414.629 469C385.981 469 362.757 445.776 362.757 417.129C362.757 388.481 385.981 365.257 414.629 365.257C443.276 365.257 466.5 388.481 466.5 417.129Z" fill="url(#paint1_linear_26_121)"/>
<path d="M605.08 401.68C593.288 401.68 582.658 398.821 573.188 393.104C563.719 387.208 556.215 379.257 550.676 369.252C545.316 359.247 542.636 347.991 542.636 335.484C542.636 322.977 545.316 311.721 550.676 301.716C556.215 291.711 563.719 283.76 573.188 277.864C582.658 271.968 593.199 269.02 604.812 269.02C614.639 269.02 623.304 271.075 630.808 275.184C638.491 279.115 644.566 284.653 649.032 291.8C653.678 298.768 656.268 306.897 656.804 316.188V354.512C656.268 363.624 653.678 371.753 649.032 378.9C644.566 386.047 638.491 391.675 630.808 395.784C623.304 399.715 614.728 401.68 605.08 401.68ZM608.832 378.9C620.803 378.9 630.451 374.88 637.776 366.84C645.102 358.621 648.764 348.169 648.764 335.484C648.764 326.729 647.067 319.136 643.672 312.704C640.456 306.093 635.811 301.001 629.736 297.428C623.84 293.676 616.872 291.8 608.832 291.8C600.792 291.8 593.646 293.676 587.392 297.428C581.318 301.18 576.494 306.361 572.92 312.972C569.347 319.404 567.56 326.819 567.56 335.216C567.56 343.792 569.347 351.385 572.92 357.996C576.494 364.428 581.318 369.52 587.392 373.272C593.646 377.024 600.792 378.9 608.832 378.9ZM647.424 452.332V367.108L651.712 336.02L647.424 305.2V271.7H671.544V452.332H647.424ZM758.11 401.68C747.748 401.68 738.368 399.357 729.97 394.712C721.752 389.888 715.32 383.277 710.674 374.88C706.029 366.483 703.706 356.745 703.706 345.668V271.7H727.826V344.596C727.826 351.564 728.988 357.639 731.31 362.82C733.812 367.823 737.385 371.664 742.03 374.344C746.676 377.024 752.125 378.364 758.378 378.364C767.848 378.364 775.262 375.416 780.622 369.52C785.982 363.445 788.662 355.137 788.662 344.596V271.7H812.782V345.668C812.782 356.745 810.46 366.483 805.814 374.88C801.169 383.277 794.737 389.888 786.518 394.712C778.478 399.357 769.009 401.68 758.11 401.68ZM912.11 401.68C902.462 401.68 893.707 399.715 885.846 395.784C878.163 391.675 871.999 386.047 867.354 378.9C862.709 371.753 860.118 363.624 859.582 354.512V316.188C860.118 306.897 862.709 298.768 867.354 291.8C872.178 284.653 878.431 279.115 886.114 275.184C893.975 271.075 902.641 269.02 912.11 269.02C923.723 269.02 934.175 271.968 943.466 277.864C952.935 283.76 960.35 291.711 965.71 301.716C971.07 311.721 973.75 322.977 973.75 335.484C973.75 347.991 971.07 359.247 965.71 369.252C960.35 379.257 952.935 387.208 943.466 393.104C934.175 398.821 923.723 401.68 912.11 401.68ZM845.11 399V207.648H869.23V302.788L864.674 333.608L869.23 364.696V399H845.11ZM908.09 378.9C916.13 378.9 923.187 377.024 929.262 373.272C935.337 369.52 940.161 364.428 943.734 357.996C947.307 351.385 949.094 343.792 949.094 335.216C949.094 326.819 947.307 319.315 943.734 312.704C940.161 306.093 935.337 301.001 929.262 297.428C923.187 293.676 916.219 291.8 908.358 291.8C900.318 291.8 893.261 293.676 887.186 297.428C881.111 301.001 876.377 306.093 872.982 312.704C869.587 319.315 867.89 326.908 867.89 335.484C867.89 343.881 869.498 351.385 872.714 357.996C876.109 364.428 880.843 369.52 886.918 373.272C893.171 377.024 900.229 378.9 908.09 378.9ZM1060.05 401.68C1047.37 401.68 1035.93 398.821 1025.75 393.104C1015.57 387.208 1007.53 379.257 1001.63 369.252C995.734 359.247 992.786 347.901 992.786 335.216C992.786 322.709 995.645 311.453 1001.36 301.448C1007.26 291.443 1015.12 283.581 1024.95 277.864C1034.95 271.968 1046.12 269.02 1058.45 269.02C1070.24 269.02 1080.6 271.7 1089.53 277.06C1098.65 282.42 1105.7 289.835 1110.71 299.304C1115.89 308.773 1118.48 319.493 1118.48 331.464C1118.48 333.251 1118.39 335.216 1118.21 337.36C1118.03 339.325 1117.67 341.648 1117.14 344.328H1009.67V324.228H1104.27L1095.43 332C1095.43 323.424 1093.91 316.188 1090.87 310.292C1087.84 304.217 1083.55 299.572 1078.01 296.356C1072.47 292.961 1065.77 291.264 1057.91 291.264C1049.69 291.264 1042.46 293.051 1036.2 296.624C1029.95 300.197 1025.12 305.2 1021.73 311.632C1018.34 318.064 1016.64 325.657 1016.64 334.412C1016.64 343.345 1018.42 351.207 1022 357.996C1025.57 364.607 1030.66 369.788 1037.27 373.54C1043.88 377.113 1051.48 378.9 1060.05 378.9C1067.2 378.9 1073.72 377.649 1079.62 375.148C1085.69 372.647 1090.87 368.895 1095.16 363.892L1110.71 379.704C1104.63 386.851 1097.13 392.3 1088.19 396.052C1079.44 399.804 1070.06 401.68 1060.05 401.68ZM1234.83 399V324.764C1234.83 315.116 1231.79 307.165 1225.71 300.912C1219.64 294.659 1211.78 291.532 1202.13 291.532C1195.7 291.532 1189.98 292.961 1184.98 295.82C1179.98 298.679 1176.04 302.609 1173.19 307.612C1170.33 312.615 1168.9 318.332 1168.9 324.764L1158.98 319.136C1158.98 309.488 1161.13 300.912 1165.41 293.408C1169.7 285.904 1175.69 280.008 1183.37 275.72C1191.05 271.253 1199.72 269.02 1209.37 269.02C1219.01 269.02 1227.5 271.432 1234.83 276.256C1242.33 281.08 1248.23 287.423 1252.51 295.284C1256.8 302.967 1258.95 311.185 1258.95 319.94V399H1234.83ZM1144.78 399V271.7H1168.9V399H1144.78ZM1309.6 399V218.368H1333.72V399H1309.6ZM1278.24 293.676V271.7H1365.07V293.676H1278.24Z" fill="#1D0D26"/>
<defs>
<linearGradient id="paint0_linear_26_121" x1="466.5" y1="469" x2="128.5" y2="131" gradientUnits="userSpaceOnUse">
<stop stop-color="#964E9C"/>
<stop offset="1" stop-color="#220C33"/>
</linearGradient>
<linearGradient id="paint1_linear_26_121" x1="466.5" y1="469" x2="128.5" y2="131" gradientUnits="userSpaceOnUse">
<stop stop-color="#964E9C"/>
<stop offset="1" stop-color="#220C33"/>
</linearGradient>
</defs>
</svg>
